<?xml version="1.0" encoding="UTF-8" standalone="no"?>
<!DOCTYPE svg PUBLIC "-//W3C//DTD SVG 1.1//EN"
 "http://www.w3.org/Graphics/SVG/1.1/DTD/svg11.dtd">
<!-- Generated by graphviz version 2.44.0 (20200408.0750)
 -->
<!-- Title: G Pages: 1 -->
<svg width="1122pt" height="316pt"
 viewBox="0.00 0.00 1122.26 316.33" xmlns="http://www.w3.org/2000/svg" xmlns:xlink="http://www.w3.org/1999/xlink">
<g id="graph0" class="graph" transform="scale(1 1) rotate(0) translate(4 312.33)">
<title>G</title>
<polygon fill="white" stroke="transparent" points="-4,4 -4,-312.33 1118.26,-312.33 1118.26,4 -4,4"/>
<!-- pending -->
<g id="node1" class="node">
<title>pending</title>
<ellipse fill="none" stroke="black" cx="76.6" cy="-81.04" rx="36" ry="36"/>
<text text-anchor="middle" x="76.6" y="-77.34" font-family="Arial" font-size="14.00">pending</text>
</g>
<!-- provisioning -->
<g id="node3" class="node">
<title>provisioning</title>
<ellipse fill="none" stroke="black" cx="250.56" cy="-81.04" rx="46.92" ry="36"/>
<text text-anchor="middle" x="250.56" y="-77.34" font-family="Arial" font-size="14.00">provisioning</text>
</g>
<!-- pending&#45;&gt;provisioning -->
<g id="edge2" class="edge">
<title>pending&#45;&gt;provisioning</title>
<path fill="none" stroke="black" d="M112.81,-81.04C135.89,-81.04 166.56,-81.04 193.01,-81.04"/>
<polygon fill="black" stroke="black" points="193.29,-84.54 203.29,-81.04 193.29,-77.54 193.29,-84.54"/>
<text text-anchor="middle" x="158.1" y="-84.84" font-family="Arial" font-size="14.00">provision</text>
</g>
<!-- starting_state -->
<g id="node2" class="node">
<title>starting_state</title>
<ellipse fill="black" stroke="black" cx="1.8" cy="-81.04" rx="1.8" ry="1.8"/>
</g>
<!-- starting_state&#45;&gt;pending -->
<g id="edge1" class="edge">
<title>starting_state&#45;&gt;pending</title>
<path fill="none" stroke="black" d="M3.62,-81.04C6.63,-81.04 17.55,-81.04 30.01,-81.04"/>
<polygon fill="black" stroke="black" points="30.21,-84.54 40.21,-81.04 30.21,-77.54 30.21,-84.54"/>
</g>
<!-- provisioning&#45;&gt;provisioning -->
<g id="edge3" class="edge">
<title>provisioning&#45;&gt;provisioning</title>
<path fill="none" stroke="black" d="M233.31,-114.53C233.22,-125.9 238.97,-135.04 250.56,-135.04 258.35,-135.04 263.5,-130.91 266.01,-124.76"/>
<polygon fill="black" stroke="black" points="269.53,-124.98 267.81,-114.53 262.63,-123.77 269.53,-124.98"/>
<text text-anchor="middle" x="250.56" y="-138.84" font-family="Arial" font-size="14.00">provision</text>
</g>
<!-- provisioned -->
<g id="node4" class="node">
<title>provisioned</title>
<ellipse fill="none" stroke="black" cx="520.56" cy="-178.04" rx="45.26" ry="36"/>
<text text-anchor="middle" x="520.56" y="-174.34" font-family="Arial" font-size="14.00">provisioned</text>
</g>
<!-- provisioning&#45;&gt;provisioned -->
<g id="edge5" class="edge">
<title>provisioning&#45;&gt;provisioned</title>
<path fill="none" stroke="black" d="M293.44,-96.2C341.01,-113.42 418.62,-141.51 469.39,-159.88"/>
<polygon fill="black" stroke="black" points="468.26,-163.2 478.86,-163.31 470.65,-156.61 468.26,-163.2"/>
<text text-anchor="middle" x="378.02" y="-153.84" font-family="Arial" font-size="14.00">provision_completed</text>
</g>
<!-- provision_failed -->
<g id="node7" class="node">
<title>provision_failed</title>
<ellipse fill="none" stroke="black" cx="520.56" cy="-62.04" rx="58.08" ry="58.08"/>
<ellipse fill="none" stroke="black" cx="520.56" cy="-62.04" rx="62.08" ry="62.08"/>
<text text-anchor="middle" x="520.56" y="-58.34" font-family="Arial" font-size="14.00">provision_failed</text>
</g>
<!-- provisioning&#45;&gt;provision_failed -->
<g id="edge9" class="edge">
<title>provisioning&#45;&gt;provision_failed</title>
<path fill="none" stroke="black" d="M297.63,-77.77C339.13,-74.83 400.77,-70.46 448.56,-67.07"/>
<polygon fill="black" stroke="black" points="448.81,-70.57 458.54,-66.37 448.32,-63.58 448.81,-70.57"/>
<text text-anchor="middle" x="378.02" y="-80.84" font-family="Arial" font-size="14.00">failure</text>
</g>
<!-- provisioned&#45;&gt;provisioned -->
<g id="edge4" class="edge">
<title>provisioned&#45;&gt;provisioned</title>
<path fill="none" stroke="black" d="M499.25,-209.93C498.43,-222.03 505.53,-232.04 520.56,-232.04 531.13,-232.04 537.78,-227.09 540.51,-219.95"/>
<polygon fill="black" stroke="black" points="543.99,-220.31 541.87,-209.93 537.06,-219.36 543.99,-220.31"/>
<text text-anchor="middle" x="520.56" y="-235.84" font-family="Arial" font-size="14.00">provision</text>
</g>
<!-- deprovisioning -->
<g id="node5" class="node">
<title>deprovisioning</title>
<ellipse fill="none" stroke="black" cx="743.48" cy="-178.04" rx="54.75" ry="36"/>
<text text-anchor="middle" x="743.48" y="-174.34" font-family="Arial" font-size="14.00">deprovisioning</text>
</g>
<!-- provisioned&#45;&gt;deprovisioning -->
<g id="edge6" class="edge">
<title>provisioned&#45;&gt;deprovisioning</title>
<path fill="none" stroke="black" d="M566,-178.04C598.11,-178.04 641.98,-178.04 677.94,-178.04"/>
<polygon fill="black" stroke="black" points="678.34,-181.54 688.34,-178.04 678.34,-174.54 678.34,-181.54"/>
<text text-anchor="middle" x="635.6" y="-181.84" font-family="Arial" font-size="14.00">deprovision</text>
</g>
<!-- deprovisioning&#45;&gt;deprovisioning -->
<g id="edge7" class="edge">
<title>deprovisioning&#45;&gt;deprovisioning</title>
<path fill="none" stroke="black" d="M723.6,-211.79C723.6,-223.04 730.23,-232.04 743.48,-232.04 752.38,-232.04 758.29,-227.98 761.21,-221.9"/>
<polygon fill="black" stroke="black" points="764.71,-222.3 763.35,-211.79 757.86,-220.85 764.71,-222.3"/>
<text text-anchor="middle" x="743.48" y="-235.84" font-family="Arial" font-size="14.00">deprovision</text>
</g>
<!-- deprovisioned -->
<g id="node6" class="node">
<title>deprovisioned</title>
<ellipse fill="none" stroke="black" cx="1044.31" cy="-251.04" rx="53.1" ry="53.1"/>
<ellipse fill="none" stroke="black" cx="1044.31" cy="-251.04" rx="57.09" ry="57.09"/>
<text text-anchor="middle" x="1044.31" y="-247.34" font-family="Arial" font-size="14.00">deprovisioned</text>
</g>
<!-- deprovisioning&#45;&gt;deprovisioned -->
<g id="edge8" class="edge">
<title>deprovisioning&#45;&gt;deprovisioned</title>
<path fill="none" stroke="black" d="M795.17,-190.42C845.73,-202.77 923.58,-221.79 978.57,-235.23"/>
<polygon fill="black" stroke="black" points="978.02,-238.69 988.57,-237.67 979.68,-231.89 978.02,-238.69"/>
<text text-anchor="middle" x="886.35" y="-232.84" font-family="Arial" font-size="14.00">deprovision_completed</text>
</g>
<!-- deprovision_failed -->
<g id="node8" class="node">
<title>deprovision_failed</title>
<ellipse fill="none" stroke="black" cx="1044.31" cy="-106.04" rx="65.91" ry="65.91"/>
<ellipse fill="none" stroke="black" cx="1044.31" cy="-106.04" rx="69.91" ry="69.91"/>
<text text-anchor="middle" x="1044.31" y="-102.34" font-family="Arial" font-size="14.00">deprovision_failed</text>
</g>
<!-- deprovisioning&#45;&gt;deprovision_failed -->
<g id="edge10" class="edge">
<title>deprovisioning&#45;&gt;deprovision_failed</title>
<path fill="none" stroke="black" d="M795.17,-165.83C842.04,-154.53 912.38,-137.59 966.21,-124.62"/>
<polygon fill="black" stroke="black" points="967.15,-127.99 976.06,-122.24 965.51,-121.18 967.15,-127.99"/>
<text text-anchor="middle" x="886.35" y="-164.84" font-family="Arial" font-size="14.00">failure</text>
</g>
</g>
</svg>
